<svg width="46" height="15" viewBox="0 0 46 15" fill="none" xmlns="http://www.w3.org/2000/svg">
<path fill-rule="evenodd" clip-rule="evenodd" d="M40.4891 8.24689H41.8868H41.888C42.0342 8.24977 42.1557 8.12903 42.1611 7.97541V3.90289C42.1611 3.39138 42.1872 2.92945 42.3833 2.46752C42.5179 2.11613 42.8351 1.87956 43.1951 1.86206C44.0891 1.86206 44.0805 2.89194 44.0738 3.70103C44.0732 3.76926 44.0726 3.83593 44.0726 3.90028V8.00934C44.0899 8.14116 44.1944 8.24113 44.3209 8.24689H45.731C45.8647 8.24979 45.9798 8.14826 46.0003 8.00934V3.24784C46.0003 2.5158 46.0003 1.49669 45.6341 0.891231C45.2382 0.238793 44.625 0 43.9969 0C43.0287 0 42.4789 0.493244 42.0866 1.52801H42.0593V0.370585C42.031 0.249588 41.9295 0.163191 41.8111 0.159195H40.5102C40.3728 0.15564 40.2557 0.263425 40.2409 0.407122V7.97541C40.2426 8.12052 40.3512 8.23927 40.4891 8.24689ZM39.1734 4.27739C39.1734 1.88946 38.0476 0.0104399 35.966 0.0104399C33.9378 0.0104399 32.812 1.85815 32.812 4.19779C32.812 6.53744 33.9241 8.41646 35.966 8.41646C37.9322 8.41646 39.1734 6.58572 39.1734 4.27739ZM34.8799 3.959C34.8799 3.03514 34.9457 1.55541 35.9796 1.55541C36.424 1.55541 36.738 1.7655 36.8957 2.28745C37.0794 2.89161 37.1054 3.65626 37.1054 4.29304C37.1054 5.26387 37.0645 6.85583 35.966 6.85583C34.8794 6.85583 34.8797 4.92568 34.8799 3.98961L34.8799 3.959ZM8.65205 8.26254H10.0534H10.0547C10.125 8.26422 10.1931 8.23642 10.2439 8.18524C10.2947 8.13405 10.324 8.0637 10.3253 7.98975V3.97986L10.3252 3.91709C10.3247 3.0452 10.3239 1.89206 11.2935 1.89206C12.1898 1.89206 12.1759 2.90524 12.1647 3.72343L12.1647 3.72355C12.1635 3.81176 12.1623 3.8977 12.1623 3.97986V7.99105C12.1647 8.1359 12.273 8.25429 12.4106 8.26254H13.8157C13.8858 8.26386 13.9536 8.23591 14.0041 8.18477C14.0546 8.13362 14.0837 8.06347 14.0851 7.98975V3.97986L14.0849 3.88453C14.0841 3.45967 14.0829 2.88635 14.2166 2.53014C14.3529 2.16603 14.6824 1.92227 15.0545 1.91032C15.4604 1.91032 15.7744 2.05386 15.8787 2.56276C15.9319 2.80769 15.925 3.37547 15.9204 3.75198V3.752L15.9204 3.75225C15.9193 3.84101 15.9184 3.91912 15.9184 3.97986V7.99105C15.9202 8.13616 16.0288 8.25491 16.1666 8.26254H17.568C17.6384 8.26422 17.7065 8.23642 17.7573 8.18524C17.808 8.13405 17.8373 8.0637 17.8386 7.98975V3.2152C17.8386 3.09879 17.8405 2.97983 17.8425 2.85956C17.8539 2.14665 17.8662 1.38779 17.4849 0.842935C17.0227 0.22489 16.2793 -0.0830928 15.5403 0.0372429C14.8013 0.157579 14.1814 0.687528 13.9187 1.42361C13.5252 0.46713 12.963 0.022167 12.099 0.022167C11.2351 0.022167 10.5934 0.46713 10.2533 1.42361H10.2272V0.435813C10.2198 0.295023 10.1129 0.182605 9.97896 0.174838H8.67191C8.52757 0.173339 8.40851 0.293285 8.40379 0.444947V8.01324C8.41651 8.14943 8.52205 8.25537 8.65205 8.26254ZM6.21295 8.31991C6.12065 8.40407 5.988 8.41818 5.88154 8.35515C5.48438 8.00778 5.36464 7.82 5.18076 7.53164C5.14913 7.48204 5.1156 7.42945 5.07844 7.37257C4.30761 8.19726 3.7627 8.44388 2.76597 8.44388C1.58553 8.44388 0.666992 7.67792 0.666992 6.14599C0.666992 4.94942 1.28762 4.13648 2.15651 3.73719C2.7981 3.44121 3.65416 3.34934 4.39426 3.26992L4.3943 3.26992C4.5319 3.25515 4.66549 3.24081 4.79295 3.22568V3.03516C4.79295 2.9988 4.79323 2.96174 4.79351 2.9242C4.79596 2.59936 4.7987 2.2377 4.6229 1.96516C4.4516 1.69375 4.12639 1.58283 3.83594 1.58283C3.30095 1.58283 2.82431 1.87121 2.70763 2.46754C2.69284 2.60665 2.59102 2.71797 2.45938 2.73896L1.11136 2.58368C1.0441 2.57355 0.983722 2.53488 0.944315 2.47668C0.904908 2.41849 0.889914 2.34586 0.902832 2.27572C1.21439 0.542848 2.7039 0.0195923 4.03826 0.0195923C4.72096 0.0195923 5.61218 0.210104 6.14841 0.752933C6.77789 1.37249 6.774 2.18356 6.76974 3.06992C6.76939 3.14309 6.76904 3.21678 6.76904 3.29092V5.5862C6.76904 6.20436 6.98721 6.51185 7.21702 6.83575L7.21703 6.83576L7.21704 6.83577L7.21705 6.83579L7.21706 6.8358L7.21707 6.83581C7.24435 6.87426 7.27179 6.91294 7.29906 6.9524C7.38843 7.08289 7.40829 7.246 7.29906 7.34387C7.01233 7.59571 6.50341 8.06024 6.22412 8.32252L6.21295 8.31991ZM4.79913 4.72626L4.79918 4.79772C4.79967 5.34047 4.80009 5.80072 4.53723 6.29212C4.3138 6.70707 3.96004 6.96282 3.56532 6.96282C3.02785 6.96282 2.71381 6.53221 2.71381 5.89282C2.71381 4.63753 3.78502 4.40918 4.79913 4.40918V4.72626ZM25.5952 6.83047L25.5953 6.83066C25.6225 6.86908 25.65 6.90774 25.6772 6.94717C25.7716 7.08288 25.7914 7.24207 25.671 7.33211C25.3843 7.58395 24.8754 8.04979 24.5961 8.31077C24.5032 8.39376 24.371 8.4073 24.2647 8.3447C23.8658 7.99583 23.7477 7.81081 23.5611 7.5187C23.53 7.46991 23.4969 7.41814 23.4603 7.36212C22.6907 8.18681 22.1421 8.43343 21.1491 8.43343C19.9687 8.43343 19.0501 7.66746 19.0501 6.13684C19.0501 4.93897 19.667 4.12603 20.5458 3.72674C21.1888 3.42963 22.0497 3.3382 22.792 3.25935C22.9266 3.24505 23.0574 3.23116 23.1823 3.21653V3.02993C23.1823 2.99374 23.1826 2.95687 23.1828 2.91952C23.1853 2.59455 23.188 2.23276 23.011 1.96124C22.8447 1.68982 22.5132 1.5776 22.224 1.5776C21.689 1.5776 21.2149 1.86598 21.097 2.46231C21.0818 2.60121 20.9801 2.71232 20.8487 2.73372L19.4895 2.57975C19.4218 2.56998 19.3609 2.53125 19.3211 2.47272C19.2814 2.41418 19.2665 2.34102 19.2798 2.27049C19.5925 0.536311 21.0821 0.0143604 22.4164 0.0143604C23.0979 0.0143604 23.9891 0.204872 24.5266 0.747701C25.1574 1.36405 25.1529 2.16884 25.1481 3.05067C25.1476 3.12844 25.1472 3.2068 25.1472 3.28569V5.58227C25.1472 6.19916 25.3653 6.50652 25.5951 6.83034L25.5952 6.83047ZM21.9509 6.95498C22.3444 6.95498 22.6994 6.69922 22.9216 6.28558C23.1854 5.7915 23.1851 5.32908 23.1848 4.77954L23.1848 4.72103V4.40264C22.1706 4.40264 21.0994 4.62969 21.0994 5.88628C21.0994 6.52437 21.4135 6.95498 21.9509 6.95498ZM26.8638 0.418848V1.49668C26.8631 1.57061 26.8912 1.64163 26.9416 1.69317C26.9921 1.74471 27.0604 1.77226 27.1307 1.7694H29.5437L26.7769 5.945C26.6506 6.16899 26.591 6.42757 26.6056 6.68748V7.7901C26.6056 7.9493 26.7732 8.13067 26.9333 8.04064C28.4593 7.20885 30.274 7.20545 31.8028 8.0315C31.9778 8.12676 32.1429 7.94277 32.1429 7.78358V6.62485C32.1382 6.44767 32.0434 6.28677 31.8946 6.20337C31.0891 5.72709 30.1519 5.58747 29.2656 5.60965L31.6538 2.02646C31.876 1.70546 32.0001 1.5019 32.0001 1.34662V0.418848C32.0009 0.345148 31.9729 0.27434 31.9227 0.222843C31.8726 0.171346 31.8046 0.143633 31.7345 0.146129H27.1257C27.0555 0.141986 26.987 0.169294 26.9371 0.221279C26.8872 0.273265 26.8605 0.345057 26.8638 0.418848Z" fill="black"/>
<path fill-rule="evenodd" clip-rule="evenodd" d="M29.1688 13.0749C29.4878 12.241 30.1978 10.3725 29.8602 9.91966H29.8627C29.5266 9.46589 27.6398 9.70402 26.7911 9.81113L26.7893 9.81136C26.5311 9.84398 26.4914 9.6078 26.7235 9.43686C28.2304 8.3238 30.6993 8.64219 30.986 9.01799C31.2728 9.3938 30.9078 11.9957 29.4965 13.238C29.2793 13.4285 29.072 13.3267 29.1688 13.0749ZM19.0289 14.3615C22.3108 14.3615 26.1327 13.2719 28.7654 11.2298V11.2337C29.2011 10.8892 28.8275 10.3829 28.3831 10.5813C25.5094 11.8555 22.4246 12.5207 19.3057 12.5386C14.9787 12.5386 10.7932 11.2911 7.40701 9.22027C7.11034 9.03889 6.8894 9.35859 7.13765 9.59216C10.3976 12.6841 14.6383 14.385 19.0289 14.3615Z" fill="#FF9900"/>
</svg>
