<?xml version="1.0" encoding="UTF-8"?>
<svg id="b" data-name="Layer 2" xmlns="http://www.w3.org/2000/svg" viewBox="0 0 32.15 36">
  <g id="c" data-name="Layer 1">
    <path d="M12.71.02c-.09.03-.34.09-.57.14-.23.05-.65.29-.93.52-.43.36-.66.43-1.46.44-1.09.01-2.01.41-2.64,1.16-.29.34-.54.48-.88.48-.66,0-1.55.84-2.2,2.07-.29.54-.82,1.32-1.19,1.73-.83.94-1.29,2.12-1.5,3.94-.12.99-.3,1.67-.6,2.27C.05,14.11-.05,14.84.02,18.15c.05,2.65.1,3.1.38,3.7.23.48.34,1.08.37,2.04.05,1.24.1,1.42.56,2.08.28.4.51.88.51,1.08,0,.9.75,2.16,1.42,2.37.15.05.39.4.54.79.53,1.38,1.46,2.1,2.72,2.1.36,0,.69.1.81.24.3.36,1.01.69,1.48.69.34,0,.47.13.78.84.2.46.58,1.02.85,1.24.62.53,1.88.8,2.68.59.69-.18,1.86-1.23,2.28-2.03.41-.79.5-3.26.16-4.44-.24-.82-.24-.97,0-2.17.23-1.11.24-1.52.09-2.93-.15-1.41-.14-1.74.07-2.35.36-1.02.24-3.42-.22-4.43l-.34-.75.33-.63c.43-.83.56-2.52.25-3.27-.19-.46-.19-.63-.03-1.02.28-.65.26-2.36-.03-3.35-.22-.75-.22-.91,0-1.8.28-1.13.32-3.64.07-4.55-.23-.83-.85-1.63-1.45-1.87-.55-.22-1.35-.38-1.58-.31h0ZM14.23,1.8l.51.46.05,1.85c.03,1.3-.02,2.04-.17,2.48q-.22.63-1.2.7c-1.1.09-1.49.4-1.66,1.31-.21,1.13.8,2.26,1.45,1.61.29-.29.15-.58-.29-.58-.27,0-.31-.09-.26-.58.04-.48.12-.6.48-.69.61-.16,1.26.05,1.48.5.23.46.26,2,.04,2.57-.12.32-.21.38-.43.26-.15-.08-.85-.18-1.54-.21-.99-.05-1.38-.15-1.76-.42-.47-.33-.49-.41-.49-1.36,0-1.66.76-2.71,2.15-2.97.61-.11.76-.3.5-.62-.4-.48-1.8-.13-2.57.63l-.53.53-.63-.35c-.5-.27-.69-.31-.91-.17-.47.3-.35.76.22.81.74.07.91.39.91,1.66,0,1.83-.28,2.33-1.61,2.94l-.67.3-.46-.39c-.25-.21-.7-.47-.99-.56-.51-.17-.53-.2-.41-.74.16-.71.6-1.31,1.15-1.58.37-.18.51-.17,1.12.13.73.35,1.02.32,1.02-.13,0-.33-1.17-.97-1.76-.97-.41,0-.43-.04-.43-.7,0-1.5.82-2.56,2.1-2.73.49-.07.64-.16.68-.42.06-.42-.48-.58-1.23-.37-.96.27-1.01.13-.28-.71.6-.68,1.21-1.01,1.85-1.01s1.88.65,2.31,1.23c.42.56.89.52.78-.08-.08-.44.35-.51.74-.12.29.29.71.19.71-.17,0-.14-.18-.43-.4-.65-.35-.35-.49-.39-1.08-.31-.86.12-1.23-.2-.68-.59.6-.42,1.61-.32,2.2.21h0ZM6.54,4.41c.12.32.1.47-.08.67-.43.48-.74,1.47-.79,2.52-.03.81-.14,1.18-.45,1.65-.22.34-.48.98-.58,1.43-.13.61-.33.97-.81,1.45l-.64.64-.37-.35c-.31-.29-.37-.5-.37-1.29,0-1.11.37-2.53.79-3.07l.3-.39-.11.7c-.19,1.23-.16,1.49.19,1.49.25,0,.36-.19.58-1.02.14-.56.27-1.33.28-1.72.02-.85.41-1.77,1.1-2.55.6-.69.74-.71.95-.16h0ZM11.06,12.14c.21.11.92.25,1.59.32,1.71.17,2.17.56,2.17,1.8s-.72,2.26-1.88,2.75c-.85.37-1.28.31-2.62-.37-.85-.43-1.03-.47-1.38-.31-.58.27-.43.7.28.82.32.05.85.28,1.18.51.33.23.72.42.87.42.22,0,.27.15.27.84,0,1.14-.26,1.86-.6,1.68-.71-.37-1.36-.34-2.01.08-.94.61-1.58,1.93-.93,1.93.1,0,.45-.28.77-.63.42-.45.72-.63,1.03-.63.58,0,1.22.51,1.35,1.08.13.58-.15,1.65-.63,2.38-.62.95-.63,1.27-.07,1.91.29.33.46.66.41.8-.15.4-.84.57-1.53.38-.66-.18-1.11-.73-1.38-1.7-.14-.49-.1-.59.41-1.15.49-.54.53-.65.33-.84-.2-.2-.29-.16-.74.25-.98.91-1.89.51-1.88-.84.01-1.28.28-1.86.93-1.99.58-.12,1.57-1.04,1.57-1.46,0-.37-.53-.28-.94.15-.45.48-.78.49-1.8.07-1.01-.42-1.41-.27-2.28.83-.8,1.02-1.02,1.15-1.48.91-.44-.24-1.02-1.24-1.02-1.78,0-.46.11-.5.54-.17.17.13.56.23.86.23,1.3,0,2.47-1.58,2.55-3.47.04-.98-.36-.91-.69.12-.41,1.29-.74,1.86-1.22,2.14-.62.37-.87.34-1.46-.19l-.51-.46v-1.93c0-1.68.05-2.03.37-2.75.2-.45.41-.82.47-.82.05,0,.3.17.55.38.48.39.49.45.16,2.47-.08.51-.06.59.22.59.38,0,.75-.84.91-2.06.24-1.94,1.39-2.56,2.7-1.46.63.53.85,1.27.78,2.64-.05,1.02-.11,1.2-.56,1.71-.52.6-.63.94-.34,1.12.46.28,1.55-1.37,1.76-2.65.12-.75.65-1.35,1.19-1.34.22,0,.85.14,1.39.31,1.53.48,2.47.38,2.34-.26-.04-.22-.17-.28-.5-.25-.24.03-1.07-.17-1.85-.44-1.43-.49-1.48-.5-2.51-.08-.18.07-.27.04-.27-.1,0-.12.32-.38.71-.59.39-.21.9-.64,1.13-.97.36-.5.46-.56.66-.38.13.11.41.29.62.4h0ZM14.45,18.11c.31.6.46,2.15.3,3.2-.09.6-.24.88-.73,1.35-.74.71-.75,1.15-.03,1.09l.48-.04.1,1.13c.11,1.23-.07,2.5-.45,3.24-.29.56-1.21,1.2-1.92,1.34-.55.11-1.82,1.35-1.72,1.67.12.36.7.29,1.03-.13.38-.48.6-.4.77.29.09.35.22.5.43.5.26,0,.3-.1.28-.71-.02-.69,0-.73.66-1.13l.68-.41.16.58c.24.85.2,2.44-.08,3.13-.37.94-1.88,1.63-2.78,1.29-.6-.23-1.06-.82-1.62-2.09-.54-1.22-.99-1.5-1.14-.71-.07.34-.13.39-.42.28-.49-.18-.57-.41-.3-.81.31-.45.33-1.37.02-1.37-.12,0-.38.21-.56.47-1.08,1.52-2.58.96-3.04-1.14-.06-.3-.26-.5-.62-.65-.53-.22-1.03-.78-1.03-1.14,0-.11.17-.24.38-.29.75-.19.61-1.01-.17-1.01-.49,0-1.1-.67-1.31-1.44-.23-.86-.08-1.22.51-1.22.49,0,1.35-.74,2.09-1.78.26-.37.39-.44.72-.35l.4.1-.21.82c-.54,2.1.05,3.72,1.37,3.72.37,0,.43.08.52.66.24,1.52,1.24,2.46,2.59,2.46.77,0,1.21-.2,1.68-.76.51-.61.46-1.3-.14-1.9-.49-.49-.49-.5-.23-.91.86-1.32,1.15-2.76.74-3.74-.17-.4-.15-.55.14-1.1.18-.35.37-1.02.42-1.49.09-.83.11-.86.69-1.03.33-.1.64-.25.69-.33.17-.27.38-.16.64.35h0ZM18.5.08c-1.03.24-1.82,1-2.1,2.01-.25.91-.2,3.91.08,4.86.22.75.22.88-.02,1.5-.21.54-.24.98-.16,2.14.05.8.08,1.67.07,1.93-.11,1.92-.03,3.17.24,3.71.27.54.27.63.04,1.25-.56,1.51-.6,4.02-.09,4.98.11.2.11.61,0,1.28-.23,1.39-.2,2.73.07,3.77.21.82.21.99-.02,1.79-.33,1.12-.36,3-.07,4.01.3,1.02,1.55,2.33,2.47,2.58,1.39.37,2.71-.26,3.42-1.63.42-.81.55-.95,1.02-1.02.62-.1,1.1-.34,1.39-.69.12-.15.45-.24.82-.24,1.21,0,2.17-.76,2.64-2.08.13-.37.4-.7.72-.89.65-.38,1.08-1.09,1.22-1.98.06-.38.33-1.05.6-1.5.45-.72.5-.93.52-2.07.01-.98.1-1.43.37-1.96.31-.61.36-.97.42-3.49.08-3.26-.05-4.17-.8-5.67-.43-.85-.55-1.28-.55-1.95,0-1.59-.69-3.41-1.63-4.3-.27-.26-.69-.89-.94-1.4-.63-1.29-1.64-2.28-2.33-2.28-.39,0-.6-.1-.78-.38-.14-.21-.58-.58-.99-.82-.58-.34-.94-.43-1.69-.44-.81,0-1.03-.07-1.46-.43-.65-.55-1.62-.78-2.44-.59h0ZM20,1.59c.38.2.44.29.29.46-.13.15-.38.19-.83.13-.79-.11-1.51.36-1.51.97,0,.43.25.48.69.14.45-.34.71-.28.71.15,0,.63.32.64.84.04,1.45-1.66,3.49-1.54,4.42.26l.23.45-.52-.13c-.7-.17-1.36-.14-1.57.07-.27.27.15.65.69.65,1.12,0,1.98,1.01,2.11,2.51l.08.93h-.5c-.71,0-1.74.56-1.74.95,0,.47.36.52,1.01.13.55-.33.61-.33,1.11-.09.67.32,1.05.9,1.07,1.63.01.46-.05.59-.3.64-.17.03-.62.27-1,.52l-.69.46-.7-.36c-1.07-.55-1.32-.99-1.41-2.46-.09-1.51.15-2.04.91-2.04.39,0,.47-.06.47-.38,0-.63-.78-.69-1.45-.12-.25.21-.33.19-.85-.34-.74-.74-1.97-1.1-2.54-.74-.35.22-.08.61.5.72,1.37.26,2,1.1,2.05,2.74.03,1.11-.08,1.38-.7,1.71-.54.29-3.33.5-3.48.26-.06-.1-.12-.68-.12-1.3,0-1.43.26-1.82,1.24-1.82.73,0,.94.19.95.85,0,.32-.08.43-.35.47-.47.07-.55.54-.11.68.23.07.48,0,.75-.2.35-.26.42-.45.46-1.19.04-.77,0-.93-.34-1.27-.32-.32-.54-.39-1.27-.39-.86,0-.88,0-1.13-.59-.17-.41-.26-1.11-.27-2.31-.02-1.85.2-2.53.91-2.87.49-.24,1.3-.21,1.83.07h0ZM26.47,4.49c.69.82.91,1.4,1.21,3.16.31,1.85.48,2.3.86,2.3.22,0,.24-.15.15-1.09-.06-.6-.07-1.09-.03-1.09s.21.26.37.59c.37.74.65,2.01.65,3.01,0,.63-.07.82-.4,1.08l-.4.31-.7-.7c-.49-.49-.7-.83-.7-1.13,0-.48-.73-2.06-.95-2.06-.08,0-.14-.52-.14-1.15,0-.96-.08-1.3-.45-2.04-.71-1.4-.35-2.21.52-1.17h0ZM22.25,12.02c.17.28.68.71,1.13.97.45.26.82.56.82.66,0,.26-.16.25-.77-.06-.49-.25-.56-.24-2.02.24-.83.27-1.68.48-1.89.45-.27-.03-.4.04-.45.25-.13.63.81.74,2.34.26.55-.17,1.18-.31,1.41-.31.57,0,.98.57,1.21,1.67.29,1.41,1.27,2.61,1.75,2.12.08-.08-.05-.4-.32-.77-1.16-1.58-.92-3.89.5-4.75.78-.48,1.27-.41,1.83.27.36.43.48.75.49,1.21,0,.87.48,2.18.8,2.24.34.06.49-.44.29-.98-.09-.23-.16-.72-.16-1.09,0-.55.08-.72.46-1.01.25-.19.5-.34.54-.34s.23.4.42.9c.48,1.22.53,4.11.09,4.78-.59.9-1.55.93-2.19.07-.17-.23-.47-.9-.66-1.49-.43-1.33-.79-1.44-.75-.22.02.58.16,1.11.47,1.72.73,1.42,1.79,1.91,2.89,1.34.26-.14.51-.21.56-.16.19.19-.33,1.5-.74,1.89-.58.56-.9.44-1.72-.64-.36-.47-.83-.93-1.04-1.01-.43-.16-1.07-.06-1.54.27-.48.33-1.15.26-1.58-.18-.46-.46-.85-.51-.85-.11s.89,1.27,1.39,1.37c.22.05.49.11.58.14.21.06.53,1.27.53,1.99,0,1.22-.97,1.6-1.93.75-.45-.4-.56-.43-.72-.25-.15.18-.08.34.35.82.53.6.54.6.33,1.31-.29.97-.94,1.57-1.75,1.6-.43.02-.74-.07-.97-.27l-.33-.3.45-.48c.7-.75.71-.95.1-2.04-.32-.58-.59-1.31-.64-1.75-.08-.67-.04-.82.33-1.27.61-.73,1.24-.69,2.04.12.69.71,1.02.79,1.02.26,0-.5-1.14-1.77-1.7-1.89-.24-.05-.73,0-1.09.12l-.64.22-.15-.49c-.21-.68-.32-1.75-.2-1.91.21-.29,2.05-1.15,2.45-1.15.33,0,.4-.06.36-.34-.1-.66-.5-.71-1.57-.18-1,.5-1.36.58-2.27.54-.61-.03-1.7-.95-2.02-1.7-.25-.61-.28-1.82-.04-2.26.24-.44,1.08-.76,2.02-.76.86,0,1.68-.27,2.01-.68.29-.35.36-.33.73.26h0ZM18.89,18.03c.22.11.47.2.56.2.1,0,.21.41.26.94.05.53.23,1.18.41,1.48.3.51.31.58.08,1.13-.41.98-.05,2.46.92,3.83.16.22.12.32-.22.59-1.31,1.03-.38,2.82,1.45,2.82,1.25,0,2.32-1.06,2.57-2.54.07-.44.18-.59.39-.59.56,0,1.12-.38,1.41-.96.36-.7.38-1.48.08-2.64-.17-.64-.18-.88-.04-.97.43-.27.65-.13,1.36.87.58.82,1.15,1.2,1.8,1.2.41,0,.42.01.35.86-.09,1.03-.65,1.75-1.44,1.83-.37.04-.5.13-.54.4-.04.28.06.39.44.53.4.14.47.23.38.5-.16.51-.52.85-1.02.96-.33.07-.48.22-.55.52-.34,1.53-.82,2.12-1.74,2.12-.47,0-.67-.11-1.17-.67-.38-.43-.68-.64-.84-.58-.32.12-.3.38.08,1.12.17.34.31.63.31.65s-.21.15-.47.28c-.44.23-.47.22-.47-.04,0-.29-.28-.66-.5-.66-.07,0-.4.58-.73,1.29-.77,1.64-1.22,2.08-2.13,2.06-.75-.02-2.01-.66-2.19-1.12-.29-.74-.38-1.8-.23-2.72.09-.54.19-1.03.23-1.1.04-.07.38.07.74.3.63.39.67.46.66,1.12,0,.53.05.72.25.76.18.04.32-.12.44-.5.25-.74.42-.82.8-.34.41.52.92.54.92.04s-.87-1.29-1.91-1.67c-1.78-.66-2.43-2.21-2.06-4.91.1-.71.12-.73.58-.69.72.07.74-.42.05-.99-.3-.25-.63-.68-.72-.96-.26-.78-.29-2.15-.08-2.98.32-1.23.47-1.3,1.47-.78h0Z" fill="#fff"/>
  </g>
</svg>