<svg width="37" height="12" viewBox="0 0 37 12" fill="none" xmlns="http://www.w3.org/2000/svg">
<path fill-rule="evenodd" clip-rule="evenodd" d="M32.3909 6.59751H33.509H33.51C33.627 6.59982 33.7242 6.50322 33.7285 6.38033V3.12231C33.7285 2.7131 33.7493 2.34356 33.9062 1.97402C34.0139 1.69291 34.2677 1.50365 34.5557 1.48965C35.2709 1.48965 35.264 2.31355 35.2586 2.96082C35.2582 3.01541 35.2577 3.06875 35.2577 3.12022V6.40747C35.2715 6.51293 35.3551 6.59291 35.4563 6.59751H36.5844C36.6913 6.59983 36.7835 6.51861 36.7999 6.40747V2.59827C36.7999 2.01264 36.7999 1.19736 36.5069 0.712985C36.1902 0.191034 35.6996 0 35.1971 0C34.4226 0 33.9827 0.394595 33.6689 1.22241H33.6471V0.296468C33.6244 0.19967 33.5432 0.130553 33.4485 0.127356H32.4078C32.2978 0.124512 32.2041 0.21074 32.1923 0.325697V6.38033C32.1937 6.49642 32.2806 6.59142 32.3909 6.59751ZM31.3383 3.42191C31.3383 1.51157 30.4377 0.00835133 28.7724 0.00835133C27.1498 0.00835133 26.2492 1.48652 26.2492 3.35823C26.2492 5.22995 27.1389 6.73317 28.7724 6.73317C30.3453 6.73317 31.3383 5.26858 31.3383 3.42191ZM27.9035 3.1672C27.9035 2.42811 27.9561 1.24433 28.7833 1.24433C29.1388 1.24433 29.39 1.4124 29.5161 1.82996C29.6631 2.31328 29.684 2.92501 29.684 3.43443C29.684 4.2111 29.6512 5.48466 28.7724 5.48466C27.9032 5.48466 27.9034 3.94054 27.9035 3.19169L27.9035 3.1672ZM6.92125 6.61004H8.04236H8.04335C8.09962 6.61137 8.1541 6.58914 8.19473 6.54819C8.23535 6.50724 8.25878 6.45096 8.25982 6.3918V3.18389L8.2598 3.13367C8.25934 2.43616 8.25873 1.51364 9.03437 1.51364C9.75144 1.51364 9.74034 2.3242 9.73139 2.97874V2.97875V2.97876C9.73042 3.04935 9.72948 3.11813 9.72948 3.18389V6.39284C9.73138 6.50872 9.81801 6.60343 9.92808 6.61004H11.0522C11.1083 6.61109 11.1625 6.58873 11.2029 6.54781C11.2433 6.50689 11.2666 6.45077 11.2677 6.3918V3.18389L11.2675 3.10762C11.2669 2.76773 11.266 2.30908 11.3729 2.02411C11.482 1.73283 11.7456 1.53782 12.0432 1.52826C12.3679 1.52826 12.6191 1.64309 12.7026 2.05021C12.7451 2.24615 12.7396 2.70039 12.736 3.0016C12.7351 3.07269 12.7343 3.13525 12.7343 3.18389V6.39284C12.7357 6.50893 12.8226 6.60393 12.9329 6.61004H14.054C14.1103 6.61137 14.1648 6.58914 14.2054 6.54819C14.246 6.50724 14.2695 6.45096 14.2705 6.3918V2.57216C14.2705 2.47907 14.272 2.38394 14.2736 2.28777L14.2736 2.28765C14.2828 1.71732 14.2925 1.11024 13.9875 0.674348C13.6177 0.179912 13.0231 -0.0664743 12.4319 0.0297943C11.8406 0.126063 11.3447 0.550022 11.1346 1.13888C10.8198 0.373704 10.37 0.0177336 9.67884 0.0177336C8.9877 0.0177336 8.47431 0.373704 8.20223 1.13888H8.18138V0.34865C8.17547 0.236018 8.08992 0.146084 7.98277 0.13987H6.93713C6.82166 0.138671 6.72642 0.234628 6.72264 0.355958V6.41059C6.73282 6.51954 6.81725 6.6043 6.92125 6.61004ZM4.96997 6.65593C4.89613 6.72326 4.79001 6.73454 4.70484 6.68412C4.38711 6.40622 4.29132 6.256 4.14422 6.02531C4.11892 5.98563 4.09209 5.94356 4.06236 5.89806C3.4457 6.55781 3.00977 6.7551 2.21238 6.7551C1.26803 6.7551 0.533203 6.14233 0.533203 4.91679C0.533203 3.95954 1.02971 3.30918 1.72482 2.98975C2.23809 2.75297 2.92294 2.67947 3.51502 2.61594C3.62511 2.60412 3.73199 2.59265 3.83397 2.58054V2.42813C3.83397 2.39911 3.83419 2.36954 3.83442 2.33957V2.33953V2.33949V2.33945V2.3394V2.33936C3.83638 2.07949 3.83857 1.79016 3.69793 1.57213C3.56089 1.355 3.30072 1.26627 3.06836 1.26627C2.64037 1.26627 2.25905 1.49697 2.16571 1.97403C2.15388 2.08532 2.07242 2.17438 1.96711 2.19117L0.888701 2.06694C0.834888 2.05884 0.786587 2.0279 0.755061 1.98135C0.723535 1.93479 0.711541 1.87669 0.721875 1.82058C0.971121 0.434279 2.16273 0.0156746 3.23022 0.0156746C3.77637 0.0156746 4.48936 0.168084 4.91834 0.602347C5.42192 1.09799 5.41881 1.74685 5.4154 2.45594C5.41512 2.51448 5.41484 2.57343 5.41484 2.63274V4.46896C5.41484 4.96349 5.58938 5.20948 5.77323 5.4686L5.77327 5.46865C5.79509 5.49941 5.81705 5.53036 5.83886 5.56192C5.91035 5.66631 5.92624 5.7968 5.83886 5.87509C5.60947 6.07657 5.20234 6.4482 4.97891 6.65802L4.96997 6.65593ZM3.83892 3.78101L3.83895 3.83817C3.83935 4.27238 3.83968 4.64058 3.62939 5.03369C3.45065 5.36565 3.16764 5.57026 2.85187 5.57026C2.42189 5.57026 2.17066 5.22577 2.17066 4.71426C2.17066 3.71003 3.02763 3.52734 3.83892 3.52734V3.78101ZM20.4757 5.46427C20.4975 5.4951 20.5195 5.5261 20.5414 5.55774C20.6169 5.6663 20.6327 5.79366 20.5364 5.86569C20.307 6.06716 19.8999 6.43984 19.6765 6.64862C19.6022 6.71501 19.4964 6.72584 19.4113 6.67576C19.0923 6.39667 18.9977 6.24865 18.8485 6.01496C18.8236 5.97593 18.7971 5.93451 18.7679 5.8897C18.1522 6.54944 17.7133 6.74674 16.9189 6.74674C15.9745 6.74674 15.2397 6.13397 15.2397 4.90947C15.2397 3.95117 15.7332 3.30082 16.4363 2.98139C16.9507 2.74371 17.6394 2.67056 18.2332 2.60748C18.3409 2.59604 18.4455 2.58493 18.5454 2.57322V2.42394C18.5454 2.39499 18.5457 2.3655 18.5459 2.33561C18.5478 2.07564 18.55 1.78621 18.4084 1.56899C18.2753 1.35186 18.0102 1.26208 17.7788 1.26208C17.3508 1.26208 16.9715 1.49278 16.8772 1.96985C16.865 2.08097 16.7837 2.16985 16.6786 2.18698L15.5912 2.0638C15.537 2.05598 15.4883 2.025 15.4565 1.97817C15.4248 1.93134 15.4128 1.87281 15.4234 1.81639C15.6736 0.429049 16.8653 0.011488 17.9327 0.011488C18.4779 0.011488 19.1909 0.163898 19.6209 0.598161C20.1255 1.09124 20.1219 1.73507 20.1181 2.44054C20.1177 2.50275 20.1174 2.56544 20.1174 2.62855V4.46582C20.1174 4.95932 20.2918 5.20522 20.4757 5.46427ZM17.5604 5.56398C17.8752 5.56398 18.1592 5.35938 18.3369 5.02846C18.5479 4.6332 18.5477 4.26326 18.5474 3.82363L18.5474 3.77682V3.52211C17.7361 3.52211 16.8792 3.70375 16.8792 4.70903C16.8792 5.2195 17.1304 5.56398 17.5604 5.56398ZM21.4907 0.335078V1.19734C21.4901 1.25649 21.5126 1.3133 21.5529 1.35453C21.5933 1.39576 21.6479 1.41781 21.7041 1.41552H23.6346L21.4211 4.756C21.3201 4.93519 21.2724 5.14205 21.2841 5.34998V6.23208C21.2841 6.35944 21.4182 6.50454 21.5463 6.43251C22.767 5.76708 24.2188 5.76436 25.4418 6.4252C25.5819 6.50141 25.7139 6.35422 25.7139 6.22686V5.29988C25.7102 5.15813 25.6343 5.02941 25.5153 4.9627C24.8709 4.58167 24.1211 4.46997 23.4121 4.48772L25.3227 1.62117C25.5004 1.36437 25.5997 1.20152 25.5997 1.07729V0.335078C25.6003 0.276118 25.5779 0.219471 25.5378 0.178274C25.4977 0.137076 25.4433 0.114905 25.3872 0.116902H21.7002C21.644 0.113588 21.5892 0.135434 21.5493 0.177023C21.5093 0.218611 21.488 0.276045 21.4907 0.335078Z" fill="black"/>
<path fill-rule="evenodd" clip-rule="evenodd" d="M23.3349 10.4599C23.5901 9.79282 24.1581 8.29795 23.888 7.93572H23.89C23.6211 7.5727 22.1116 7.7632 21.4327 7.84889L21.4313 7.84907C21.2247 7.87517 21.193 7.68622 21.3786 7.54947C22.5842 6.65902 24.5593 6.91374 24.7886 7.21438C25.018 7.51502 24.7261 9.59657 23.597 10.5904C23.4233 10.7428 23.2574 10.6613 23.3349 10.4599ZM15.223 11.4892C17.8485 11.4892 20.906 10.6175 23.0121 8.98381V8.98695C23.3607 8.71136 23.0618 8.30632 22.7063 8.465C20.4073 9.4844 17.9395 10.0165 15.4444 10.0308C11.9828 10.0308 8.63434 9.03288 5.92541 7.37621C5.68808 7.2311 5.51132 7.48686 5.70993 7.67372C8.31787 10.1473 11.7105 11.508 15.223 11.4892Z" fill="#FF9900"/>
</svg>
